<svg width="16" height="16" viewBox="0 0 16 16" fill="none" xmlns="http://www.w3.org/2000/svg">
<path d="M16 8.04899C16 3.60299 12.418 -0.00100708 8 -0.00100708C3.58 -7.08003e-06 -0.0019989 3.60299 -0.0019989 8.04999C-0.0019989 12.067 2.924 15.397 6.748 16.001V10.376H4.718V8.04999H6.75V6.27499C6.75 4.25799 7.945 3.14399 9.772 3.14399C10.648 3.14399 11.563 3.30099 11.563 3.30099V5.28099H10.554C9.561 5.28099 9.251 5.90199 9.251 6.53899V8.04899H11.469L11.115 10.375H9.25V16C13.074 15.396 16 12.066 16 8.04899Z" fill="#A7A7A7"/>
</svg>
